<svg version="1.1" id="Layer_1" xmlns="http://www.w3.org/2000/svg" xmlns:xlink="http://www.w3.org/1999/xlink" x="0px" y="0px"
	 width="100%" viewBox="0 0 480 480" enable-background="new 0 0 480 480" xml:space="preserve">
<path fill="#000000" opacity="1.000000" stroke="none" 
	d="
M172.245987,180.462708 
	C178.960434,181.608170 184.546158,184.160645 185.985413,190.866791 
	C187.548035,198.147675 185.442902,204.407455 179.147858,209.387207 
	C173.174225,214.112686 166.353104,217.115662 159.785767,220.661438 
	C158.316650,221.454636 156.125687,222.644119 155.051865,220.275864 
	C154.162277,218.313934 156.185623,217.489456 157.537415,216.546112 
	C159.006485,215.520950 160.984055,215.235794 162.015228,213.543152 
	C157.313232,210.128738 151.243423,210.522629 146.279861,214.529572 
	C137.174149,221.880264 139.299667,239.818283 149.821152,244.073441 
	C153.982834,245.756546 158.370956,246.607742 162.051239,243.307312 
	C164.544983,241.071014 163.635056,233.709198 160.654343,229.588852 
	C164.393585,227.941498 167.981689,228.549866 172.076279,229.297592 
	C171.008514,233.874527 170.870300,238.308151 170.852951,242.751984 
	C170.845856,244.565002 169.980087,245.978973 168.321121,246.746033 
	C159.669403,250.746475 150.898392,251.363190 142.434937,246.564468 
	C134.586090,242.114227 131.337357,232.542236 133.691162,222.550949 
	C135.840347,213.428268 143.118637,207.678909 153.751785,206.739868 
	C157.963516,206.367935 162.385178,206.487793 165.922134,208.592896 
	C169.488342,210.715408 171.756744,209.555435 174.321594,207.489578 
	C178.100067,204.446213 181.213486,200.828125 180.424057,195.674423 
	C179.647980,190.607880 175.596252,188.563232 171.091064,187.028915 
	C162.369965,184.058868 153.687302,185.441422 144.947403,186.697266 
	C129.558411,188.908569 115.600319,194.932083 102.246056,202.578201 
	C99.825012,203.964386 97.534233,205.161057 95.276215,202.409470 
	C95.580376,199.917877 97.491318,199.044098 99.168228,198.060425 
	C117.365807,187.385864 136.827759,180.553146 157.974747,179.017426 
	C162.636826,178.678879 167.256180,179.482330 172.245987,180.462708 
z"/>
<path fill="#000000" opacity="1.000000" stroke="none" 
	d="
M79.856720,261.733154 
	C92.827171,255.262299 105.834076,250.380920 120.324112,251.511475 
	C126.230812,251.972321 131.725586,253.950867 136.801422,256.887878 
	C144.559357,261.376831 146.897079,272.432526 142.312088,281.764191 
	C139.272873,287.949799 134.329315,292.491180 128.814117,296.201019 
	C117.065079,304.104156 104.170433,309.292511 89.996956,311.036652 
	C81.786789,312.046936 73.974480,310.507690 66.757088,306.800293 
	C55.520115,301.028290 54.215115,283.964111 63.909317,273.371490 
	C68.358894,268.509552 73.764847,264.967346 79.856720,261.733154 
M89.434807,304.967804 
	C105.545532,304.336029 119.389404,298.109009 131.509872,287.765930 
	C137.057846,283.031525 139.434464,276.899933 137.224472,269.880219 
	C135.069931,263.036652 129.035080,260.700043 122.593384,259.441010 
	C111.530670,257.278748 100.672424,258.441986 90.248642,262.429840 
	C79.757675,266.443359 69.608749,271.208008 64.517708,282.319183 
	C60.438354,291.222290 63.417374,298.744019 72.303261,302.735870 
	C77.521301,305.080017 83.001045,304.821442 89.434807,304.967804 
z"/>
<path fill="#000000" opacity="1.000000" stroke="none" 
	d="
M361.935974,233.294327 
	C359.380890,230.900482 358.548615,232.196274 358.399384,234.592941 
	C358.132385,238.880859 358.257111,243.160431 359.656921,247.554153 
	C355.951355,248.457977 352.843994,249.394852 349.509583,248.422043 
	C350.405762,235.218079 352.705383,222.108734 348.627136,209.367676 
	C348.184998,209.391922 347.742859,209.416168 347.300690,209.440399 
	C347.401031,209.135605 347.459839,208.586121 347.607635,208.561035 
	C355.837250,207.164093 364.206085,206.426849 372.090027,209.503067 
	C378.963623,212.185013 379.707855,222.606323 373.833618,227.625702 
	C372.835785,228.478348 371.687164,229.154526 370.100952,230.268448 
	C373.636169,237.521652 378.534882,243.349182 385.728546,247.412827 
	C379.977661,249.070602 375.035248,248.489517 370.758484,244.536469 
	C367.294220,241.334381 364.843262,237.350662 361.935974,233.294327 
M366.749359,226.386276 
	C370.061768,223.670929 370.310089,220.178146 369.086395,216.449417 
	C367.757446,212.400208 364.208160,211.317001 360.683350,211.707306 
	C357.049377,212.109680 358.686890,215.615082 358.331238,217.847626 
	C358.150635,218.981186 358.294617,220.168625 358.312927,221.331360 
	C358.418915,228.059372 359.236267,228.630890 366.749359,226.386276 
z"/>
<path fill="#000000" opacity="1.000000" stroke="none" 
	d="
M191.869644,248.302917 
	C188.849167,248.528473 186.088440,248.528473 182.848572,248.528473 
	C186.271088,234.763046 183.719345,221.449432 185.311981,206.654343 
	C196.236755,215.181046 203.719193,225.634857 214.723526,234.312546 
	C214.603683,224.849030 215.731827,216.696991 213.377914,208.718155 
	C215.411621,207.254272 217.452682,207.674774 219.405197,207.793869 
	C221.308884,207.909958 221.889893,209.018555 221.486023,210.898407 
	C219.272949,221.199631 220.037247,231.713943 219.312836,242.123093 
	C219.182419,243.996765 220.170425,246.528351 217.635254,247.333893 
	C215.297089,248.076813 214.234100,245.747757 212.891891,244.357162 
	C205.869202,237.081345 198.860657,229.791901 191.122223,222.924805 
	C188.495728,231.781754 188.672287,240.008514 191.869644,248.302917 
z"/>
<path fill="#000000" opacity="1.000000" stroke="none" 
	d="
M336.860992,207.717407 
	C339.090546,207.926926 341.677673,208.024918 340.435852,210.654221 
	C338.377106,215.013336 339.301575,219.474365 339.048584,223.895615 
	C338.858643,227.215317 339.002411,230.559982 338.700012,233.866333 
	C337.573364,246.185135 329.432739,251.864288 317.284119,248.927292 
	C309.726959,247.100296 306.071594,242.765671 305.756226,234.766663 
	C305.546661,229.450577 305.625793,224.118134 305.735016,218.796265 
	C305.807159,215.281311 305.948425,211.840530 301.536194,209.186844 
	C306.337067,206.942184 310.235443,207.700470 314.700348,208.202271 
	C312.621490,216.175751 313.404114,223.946548 313.372314,231.680069 
	C313.335632,240.596344 317.171783,245.606277 323.612152,245.517319 
	C330.048981,245.428436 333.616089,240.932770 333.867340,232.193466 
	C334.020233,226.875214 333.647461,221.539276 333.873199,216.226685 
	C333.996552,213.323471 331.756439,211.466736 331.205322,208.977814 
	C332.768951,207.110916 334.725037,207.935944 336.860992,207.717407 
z"/>
<path fill="#000000" opacity="1.000000" stroke="none" 
	d="
M409.673889,243.993057 
	C411.507965,243.161682 412.218231,241.235840 414.624084,241.281876 
	C415.537994,243.980576 416.071625,246.528748 412.786469,248.224380 
	C410.742889,249.279190 390.477020,248.998734 387.341736,247.811996 
	C391.737305,241.851364 390.831085,234.953140 390.586548,228.282150 
	C390.349457,221.814896 392.570984,214.997620 388.225220,209.198776 
	C389.337341,207.288773 390.985931,207.724060 392.394043,207.708740 
	C398.217499,207.645386 404.042236,207.642654 409.865845,207.693604 
	C411.626373,207.709000 413.653748,207.241516 414.704041,209.362717 
	C415.186218,210.336609 415.068207,211.343918 414.394104,212.171021 
	C412.795471,214.132401 411.081635,212.750992 409.407837,212.257904 
	C409.248505,212.210953 409.098389,212.128937 408.937347,212.092255 
	C405.716705,211.358307 401.860321,209.918442 399.555267,212.639984 
	C397.111572,215.525192 397.696716,219.959122 399.224579,223.152802 
	C401.362091,227.621002 405.794464,225.490891 409.392303,225.094528 
	C410.524994,224.969742 411.639160,224.205368 412.585175,225.347382 
	C413.406677,226.339111 413.344025,227.535233 412.893158,228.652359 
	C412.291351,230.143433 410.972473,230.333542 409.568573,230.242615 
	C409.237518,230.221176 408.909546,230.154556 408.579651,230.112610 
	C398.778168,228.866241 398.966431,228.866791 398.944092,238.508804 
	C398.933105,243.252151 400.565704,245.390884 405.394653,244.640625 
	C406.697449,244.438187 408.015045,244.330612 409.673889,243.993057 
z"/>
<path fill="#000000" opacity="1.000000" stroke="none" 
	d="
M78.727646,241.666199 
	C80.409668,238.241501 81.461639,240.309540 82.564583,241.739639 
	C85.225113,245.189438 88.467514,246.383698 92.618568,244.503036 
	C97.443199,242.317245 98.218452,237.521759 94.026596,234.258026 
	C91.281906,232.121048 88.097237,230.556763 85.290871,228.489899 
	C78.894348,223.778946 77.121559,217.442093 80.517853,212.115860 
	C83.845428,206.897385 94.490097,204.312363 99.970200,207.542877 
	C103.307205,209.510040 102.364815,212.123566 100.600914,215.040466 
	C97.116470,213.860382 94.438255,210.105225 90.116730,212.092209 
	C88.223221,212.962814 86.280098,213.569046 85.931320,215.847534 
	C85.592453,218.061295 86.815720,219.679840 88.650352,220.779816 
	C91.074417,222.233200 93.573372,223.561600 95.998528,225.013245 
	C103.484329,229.494095 105.872543,237.214035 101.795212,243.638519 
	C98.047569,249.543457 86.626419,251.489197 80.565811,247.353058 
	C78.536476,245.968109 78.647606,244.041092 78.727646,241.666199 
z"/>
<path fill="#000000" opacity="1.000000" stroke="none" 
	d="
M231.762207,248.150757 
	C229.389618,248.256378 227.384277,248.283691 228.674622,245.303833 
	C233.687531,233.727448 238.699799,222.150757 243.735489,210.584305 
	C244.130417,209.677170 244.663574,208.803207 246.711411,208.569641 
	C253.748535,220.830643 257.324280,235.104706 265.007172,247.380432 
	C258.856201,250.312759 255.490128,249.040405 253.906357,243.348709 
	C252.971375,239.988586 251.924850,236.944580 247.430359,237.292023 
	C242.727859,237.655548 237.081268,235.573288 235.343536,242.685913 
	C234.844803,244.727325 234.383255,246.969757 231.762207,248.150757 
M248.439331,231.445709 
	C247.922501,227.995880 246.633224,224.901810 244.048050,221.516159 
	C242.774521,224.517227 241.707581,226.907944 240.743149,229.339294 
	C239.796417,231.726044 240.881348,232.832214 243.250366,232.871399 
	C244.894821,232.898605 246.600403,233.128677 248.439331,231.445709 
z"/>
<path fill="#000000" opacity="1.000000" stroke="none" 
	d="
M279.834106,248.537262 
	C278.031036,248.393890 276.471558,248.639572 275.108429,247.134888 
	C278.036896,244.054581 277.823730,240.167999 277.865387,236.369980 
	C277.936646,229.876114 278.006561,223.379898 277.906860,216.887283 
	C277.834656,212.184525 275.206665,210.464844 270.685364,211.966385 
	C269.746918,212.278046 268.892914,212.836746 267.984100,213.246399 
	C266.438782,213.943008 264.536316,216.044510 263.300751,213.704559 
	C262.144318,211.514511 263.924133,209.635025 266.001892,208.566879 
	C266.865082,208.123108 267.894775,207.783401 268.851715,207.775909 
	C278.010254,207.704041 287.169403,207.702698 296.328400,207.707199 
	C298.579468,207.708298 299.770264,208.763000 299.418884,211.143463 
	C299.022827,213.826889 297.410980,213.543304 295.363007,213.036911 
	C285.357758,210.562927 285.274750,210.665359 285.293823,220.734909 
	C285.303284,225.731079 285.309875,230.727310 285.302032,235.723480 
	C285.295349,239.977493 284.640320,244.386139 288.876770,247.567490 
	C285.764618,249.860916 282.857941,247.884247 279.834106,248.537262 
z"/>
<path fill="#000000" opacity="1.000000" stroke="none" 
	d="
M121.983650,222.806137 
	C121.396500,231.658752 120.094955,240.111282 124.486740,248.440659 
	C120.477036,249.716507 116.747948,249.047073 112.798882,248.544266 
	C116.023773,235.189377 114.267120,222.084122 114.455383,208.646317 
	C117.124046,207.083008 120.056755,207.369705 123.581207,208.489502 
	C122.053787,213.107986 122.217522,217.737473 121.983650,222.806137 
z"/>
<path fill="#000000" opacity="1.000000" stroke="none" 
	d="
M306.966492,261.371765 
	C309.982239,258.809631 311.068512,260.389893 311.234833,263.088104 
	C311.415375,266.016541 311.165771,268.747162 315.536041,268.684509 
	C319.400665,268.629120 319.784332,266.484406 319.780457,263.525543 
	C319.778473,261.984497 320.251617,260.331879 322.202118,260.403046 
	C324.237488,260.477325 324.245544,262.211823 324.269043,263.738281 
	C324.337952,268.219788 324.373199,272.701904 324.467468,277.182831 
	C324.511688,279.283752 324.502380,281.556702 321.723389,281.518921 
	C319.173035,281.484253 319.521301,279.000214 319.222809,277.326324 
	C318.998169,276.066559 319.178375,274.734589 319.178375,273.247833 
	C316.832092,272.548340 314.608307,273.035156 312.607239,273.240906 
	C311.165710,275.060699 312.305664,276.796753 311.870972,278.374817 
	C311.407867,280.056183 310.865967,281.692780 308.692719,281.496063 
	C306.689423,281.314728 306.674316,279.691254 306.500824,278.160522 
	C305.879578,272.680511 306.275391,267.225952 306.966492,261.371765 
z"/>
<path fill="#000000" opacity="1.000000" stroke="none" 
	d="
M210.320190,266.771729 
	C211.977356,269.568237 214.168747,268.410004 216.202011,268.042664 
	C217.615692,267.787262 218.955551,267.689331 219.372910,269.434143 
	C219.815170,271.283173 218.630768,272.070892 217.099197,272.701385 
	C215.066147,273.538239 212.360565,271.931702 210.701355,274.453094 
	C212.108566,276.783386 214.319016,275.512024 216.108856,275.749512 
	C218.091797,276.012634 220.528091,275.761139 220.637207,278.470917 
	C220.747803,281.217377 218.391388,281.255371 216.344009,281.369385 
	C205.542923,281.970978 205.543350,281.977692 205.620102,271.153809 
	C205.623627,270.656189 205.632599,270.158478 205.624817,269.661011 
	C205.434647,257.511810 205.829956,260.434845 216.653076,259.711121 
	C218.227432,259.605835 219.841141,259.900940 219.892975,261.901733 
	C219.950531,264.123779 218.274872,264.438049 216.479538,264.567535 
	C214.287613,264.725647 211.394485,262.663940 210.320190,266.771729 
z"/>
<path fill="#000000" opacity="1.000000" stroke="none" 
	d="
M181.289062,264.727417 
	C181.797668,268.613312 184.425629,267.957306 186.699844,267.920380 
	C189.164215,267.880402 189.603333,266.226318 189.694565,264.192200 
	C189.777893,262.334259 189.973526,260.086639 192.490372,260.357239 
	C194.744934,260.599609 194.211823,262.826263 194.269989,264.417938 
	C194.421875,268.574036 194.515106,272.732269 194.657608,276.888763 
	C194.723877,278.822571 194.636215,280.895996 192.221634,281.056183 
	C189.559174,281.232819 189.499252,278.953125 189.674393,277.145355 
	C190.086227,272.894318 187.925018,271.830872 184.246597,272.375641 
	C181.152634,272.833862 181.575378,275.108673 181.530151,277.324921 
	C181.493515,279.120758 181.326294,281.334229 178.715973,281.182465 
	C176.277832,281.040680 176.705826,278.910370 176.685013,277.333893 
	C176.627853,273.004333 176.638748,268.672638 176.707169,264.343140 
	C176.735184,262.570374 176.432602,260.162292 179.000977,260.131073 
	C181.692032,260.098389 181.028442,262.608704 181.289062,264.727417 
z"/>
<path fill="#000000" opacity="1.000000" stroke="none" 
	d="
M244.903778,280.392395 
	C240.662292,273.804993 237.788345,273.653992 233.249893,279.583099 
	C232.136124,281.038116 230.780502,282.234863 229.066605,281.245422 
	C226.877060,279.981384 228.409256,278.293427 229.269958,277.005707 
	C232.856705,271.639618 235.157654,265.580872 237.669250,260.170441 
	C240.214890,259.913757 240.830338,261.217773 241.386307,262.386810 
	C243.745255,267.346924 246.099335,272.312012 248.308350,277.339813 
	C249.753998,280.630157 248.544296,281.758026 244.903778,280.392395 
z"/>
<path fill="#000000" opacity="1.000000" stroke="none" 
	d="
M290.435791,265.918579 
	C290.355530,270.147858 290.401520,273.975403 290.332550,277.800842 
	C290.302551,279.464813 290.240082,281.415863 287.857086,281.326111 
	C285.818054,281.249298 285.755951,279.514038 285.724731,277.992676 
	C285.676910,275.663422 285.610901,273.327972 285.723236,271.003418 
	C285.902527,267.292999 285.879730,263.865234 280.824280,263.584412 
	C279.840576,263.529785 278.929077,262.827820 279.061981,261.571320 
	C279.186340,260.395599 280.040314,259.784241 281.096680,259.770264 
	C285.422028,259.712860 289.748810,259.739197 294.074799,259.774109 
	C295.153900,259.782806 296.077179,260.206116 296.124054,261.454681 
	C296.170319,262.686829 295.274994,263.129303 294.231018,263.371490 
	C292.777374,263.708710 291.240967,263.913086 290.435791,265.918579 
z"/>
<path fill="#000000" opacity="1.000000" stroke="none" 
	d="
M270.282440,277.306091 
	C272.208221,276.781158 273.323730,277.081787 273.258423,278.989746 
	C273.210999,280.374969 272.314362,281.170441 271.027405,281.199554 
	C267.549072,281.278351 264.065430,281.284180 260.588074,281.179993 
	C258.874451,281.128662 258.510284,279.787994 258.524506,278.344177 
	C258.573578,273.368011 258.621765,268.391724 258.708160,263.416138 
	C258.734894,261.877472 258.922333,260.159698 260.930878,260.194244 
	C262.955841,260.229065 262.993866,262.042999 263.064331,263.517212 
	C263.183136,266.001617 263.370117,268.506897 263.180939,270.976807 
	C262.795929,276.003571 264.978729,278.093079 270.282440,277.306091 
z"/>
</svg>