<?xml version="1.0" standalone="no"?>
<!DOCTYPE svg PUBLIC "-//W3C//DTD SVG 20010904//EN"
 "http://www.w3.org/TR/2001/REC-SVG-20010904/DTD/svg10.dtd">
<svg version="1.0" xmlns="http://www.w3.org/2000/svg"
 width="480.000000pt" height="480.000000pt" viewBox="0 0 480.000000 480.000000"
 preserveAspectRatio="xMidYMid meet">

<g transform="translate(0.000000,480.000000) scale(0.100000,-0.100000)" stroke="none">
<path d="M0 2400 l0 -2400 2400 0 2400 0 0 2400 0 2400 -2400 0 -2400 0 0
-2400z m1730 594 c75 -22 110 -61 110 -123 0 -91 -74 -167 -232 -239 -94 -43
-86 -23 9 22 178 85 233 181 152 263 -96 99 -435 59 -710 -83 -119 -62 -155
-67 -64 -8 221 141 563 219 735 168z m-735 -284 c0 -9 -6 -13 -15 -11 -104 30
-176 -11 -140 -79 6 -10 38 -34 72 -52 100 -53 128 -134 69 -200 -29 -32 -31
-33 -113 -33 -83 0 -83 0 -86 27 -2 15 1 35 7 45 10 17 10 16 11 -3 1 -57 96
-80 144 -35 32 30 34 71 4 98 -13 11 -49 36 -80 56 -63 40 -78 61 -78 107 0
71 43 101 140 97 50 -1 65 -5 65 -17z m212 -3 c-17 -17 -18 -33 -15 -193 3
-173 3 -174 -19 -174 -12 0 -30 -3 -40 -7 -15 -6 -16 -4 -6 8 18 22 23 361 6
366 -28 10 -10 18 40 18 52 1 53 1 34 -18z m422 17 c22 -5 31 -12 31 -26 0
-18 -1 -18 -32 -1 -45 23 -125 22 -168 -3 -95 -54 -107 -220 -21 -305 40 -40
101 -56 156 -41 28 8 30 12 37 73 5 56 4 66 -13 79 -17 14 -15 15 31 12 38 -3
48 -7 41 -16 -5 -6 -11 -40 -13 -75 l-3 -64 -40 -14 c-64 -23 -175 -13 -225
21 -94 62 -107 217 -27 305 48 52 149 74 246 55z m499 -269 l23 -19 -3 141 -3
141 27 5 c25 3 27 2 13 -13 -12 -13 -15 -50 -15 -188 0 -95 -3 -172 -7 -172
-5 0 -72 62 -151 138 l-143 137 2 -139 c1 -128 -1 -141 -17 -147 -32 -13 -36
-10 -20 13 13 18 16 56 16 203 l1 180 127 -131 c70 -72 137 -139 150 -149z
m842 252 c0 -14 -4 -16 -19 -7 -11 5 -43 10 -71 10 l-51 0 3 -185 3 -185 -30
0 -30 0 3 185 3 185 -50 0 c-39 0 -56 -6 -80 -26 -33 -28 -40 -22 -16 13 18
26 36 28 208 28 115 0 127 -1 127 -18z m154 6 c-14 -10 -15 -32 -12 -157 l3
-146 31 -31 c53 -53 147 -41 180 23 21 40 20 304 -1 315 -10 6 -3 9 24 8 32 0
37 -2 28 -14 -7 -9 -14 -71 -17 -160 -6 -165 -15 -191 -77 -212 -78 -25 -201
17 -217 74 -3 12 -6 83 -6 158 0 74 -4 139 -9 145 -6 5 8 9 40 9 41 0 47 -2
33 -12z m531 7 c45 -7 66 -16 83 -35 43 -50 20 -134 -43 -155 l-35 -12 31 -44
c35 -51 94 -114 124 -130 16 -10 12 -10 -23 -4 -48 8 -80 35 -144 118 -29 37
-47 52 -64 52 -23 0 -24 -3 -24 -66 0 -36 5 -74 10 -85 10 -17 7 -19 -27 -19
l-38 0 0 187 0 188 35 6 c19 3 40 7 45 8 6 0 37 -3 70 -9z m475 -12 c0 -17 -3
-19 -12 -10 -7 7 -40 12 -80 12 l-68 0 0 -81 0 -81 70 4 c57 2 70 0 70 -12 0
-12 -13 -14 -70 -12 l-71 4 3 -89 3 -88 58 -3 c51 -3 60 0 84 25 18 19 24 22
20 10 -4 -10 -7 -25 -7 -33 0 -12 -21 -15 -119 -13 l-120 1 10 25 c15 39 12
343 -3 345 -7 1 39 5 102 8 63 3 118 7 123 8 4 1 7 -8 7 -20z m-1670 3 c0 -10
109 -268 140 -333 l18 -38 -28 0 c-16 0 -37 -3 -47 -7 -15 -6 -16 -4 -5 9 10
12 9 24 -5 62 l-17 46 -82 0 -82 0 -18 -47 c-17 -47 -38 -73 -57 -73 -6 0 -3
8 5 18 9 9 49 97 89 195 64 154 89 202 89 168z m-1135 -466 c70 -36 95 -76 95
-150 -1 -119 -72 -201 -258 -295 -212 -106 -454 -111 -545 -11 -119 132 -4
328 252 430 134 52 176 61 292 58 95 -2 112 -5 164 -32z m465 -72 c-4 -52 -3
-53 55 -53 l55 0 0 40 c0 22 5 40 10 40 6 0 10 -38 10 -95 0 -57 -4 -95 -10
-95 -5 0 -10 20 -10 44 l0 43 -52 6 c-29 2 -54 4 -55 3 -2 -1 -3 -23 -4 -49
-4 -87 -19 -48 -19 48 0 61 4 95 11 95 6 0 10 -12 9 -27z m340 18 l-55 -6 0
-35 0 -35 48 0 c26 0 47 -3 47 -7 0 -5 -23 -8 -51 -8 l-50 0 3 -37 3 -38 53 0
c28 1 52 -3 52 -7 0 -5 -29 -8 -66 -7 -52 2 -64 5 -60 16 4 8 6 50 6 94 l0 79
63 -2 62 -1 -55 -6z m263 -8 c3 -10 21 -53 41 -95 19 -43 31 -78 25 -78 -5 0
-15 14 -20 30 -10 28 -14 30 -61 30 -46 0 -51 -2 -61 -30 -6 -16 -16 -30 -22
-30 -6 0 10 43 35 95 25 52 48 95 51 95 4 0 9 -8 12 -17z m211 -73 c-1 -50 -4
-93 -8 -97 -3 -3 -6 37 -6 90 0 54 3 97 8 97 4 0 7 -41 6 -90z m309 83 l-33
-4 0 -90 c0 -53 -4 -89 -10 -89 -6 0 -10 37 -10 91 l0 91 -40 -4 c-22 -2 -40
0 -40 4 0 5 37 7 83 6 45 0 67 -3 50 -5z m177 -88 c0 -57 -4 -95 -10 -95 -6 0
-10 38 -10 95 0 57 4 95 10 95 6 0 10 -38 10 -95z m130 0 c0 -62 -4 -95 -11
-95 -7 0 -10 18 -7 47 l3 48 -39 -2 c-28 -1 -35 1 -25 8 8 5 24 9 37 9 19 0
22 5 22 40 0 22 5 40 10 40 6 0 10 -38 10 -95z m-505 -85 c-3 -5 -27 -9 -53
-9 l-47 2 40 7 c61 11 67 11 60 0z"/>
<path d="M3562 2618 l3 -93 49 1 c62 1 86 26 86 91 0 62 -32 93 -95 93 l-46 0
3 -92z"/>
<path d="M2397 2560 c-15 -38 -27 -74 -27 -80 0 -6 28 -10 65 -10 36 0 65 2
65 4 0 14 -60 151 -67 153 -5 2 -21 -28 -36 -67z"/>
<path d="M1018 2230 c-188 -34 -340 -120 -394 -221 -26 -50 -25 -136 4 -176
53 -74 209 -103 367 -68 143 31 329 145 370 226 33 62 14 149 -39 189 -62 46
-204 69 -308 50z"/>
<path d="M2356 2130 c-9 -22 -16 -43 -16 -45 0 -3 16 -5 35 -5 19 0 35 4 35 9
0 11 -29 81 -34 81 -2 0 -11 -18 -20 -40z"/>
</g>
</svg>
